<svg width="1564" height="1621" viewBox="0 0 1564 1621" fill="none" xmlns="http://www.w3.org/2000/svg">
<path d="M1340.92 895.41C1303.4 895.41 1272.92 925.812 1272.92 963.374V1142.85L704.46 1474.51L135.995 1142.85V498.017C480.914 544.207 741.042 841.767 741.042 1190.21C741.042 1201.95 740.748 1213.86 740.161 1225.54C738.282 1263.05 767.172 1294.92 804.694 1296.74C805.868 1296.74 806.984 1296.79 808.1 1296.79C844.095 1296.79 874.101 1268.56 875.921 1232.23C876.626 1218.32 876.978 1204.18 876.978 1190.21C876.978 986.85 802.932 790.941 668.523 638.581C565.118 521.376 431.883 436.275 284.497 391.612L704.46 146.579L901.523 261.554C933.936 280.452 975.568 269.536 994.476 237.139C1013.38 204.741 1002.46 163.13 970.049 144.232L738.693 9.24374C717.554 -3.08125 691.365 -3.08125 670.167 9.24374L33.7051 380.519C12.8596 392.668 0 415.029 0 439.21V1181.76C0 1205.94 12.8596 1228.24 33.7051 1240.45L670.167 1611.73C680.737 1617.89 692.598 1621 704.401 1621C716.203 1621 728.065 1617.89 738.634 1611.73L1375.1 1240.45C1395.94 1228.3 1408.8 1205.94 1408.8 1181.76V963.315C1408.8 925.812 1378.38 895.352 1340.8 895.352L1340.92 895.41Z" fill="#100217"/>
<path d="M1262.3 216.303C1095.95 216.303 960.597 351.585 960.597 517.854C960.597 684.124 1095.95 819.406 1262.3 819.406C1428.65 819.406 1564 684.124 1564 517.854C1564 351.585 1428.65 216.303 1262.3 216.303ZM1262.3 683.596C1170.87 683.596 1096.53 609.235 1096.53 517.913C1096.53 426.591 1170.93 352.23 1262.3 352.23C1353.67 352.23 1428.06 426.591 1428.06 517.913C1428.06 609.235 1353.67 683.596 1262.3 683.596Z" fill="#100217"/>
</svg>
