<svg width="4664" height="1621" viewBox="0 0 4664 1621" fill="none" xmlns="http://www.w3.org/2000/svg">
<path d="M2087.04 711.23C2222 711.23 2305.37 643.804 2305.37 534.251C2305.37 432.654 2226.76 397.739 2105.31 371.581C2024.35 354.123 1998.12 343.019 1998.12 309.707C1998.12 282.748 2021.94 262.085 2065.57 262.085C2116.36 262.085 2170.36 281.145 2221.15 319.208L2289.4 222.419C2232.25 174.797 2159.99 148.64 2069.52 148.64C1944.87 148.64 1861.56 218.47 1861.56 322.414C1861.56 426.358 1948.08 462.875 2064.77 489.09C2143.39 508.15 2168.75 515.305 2168.75 547.816C2168.75 577.179 2142.53 597.041 2091.74 597.041C2025.03 597.041 1966.28 571.627 1913.09 528.012L1837.68 618.505C1902.9 680.265 1991.02 711.23 2087.04 711.23ZM2426.08 702.473H2561.04V532.648H2678.53C2797.63 532.648 2884.95 455.663 2884.95 346.167C2884.95 236.671 2798.43 159.687 2678.53 159.687H2426.08V702.473ZM2561.78 409.644V282.691H2665.76C2713.4 282.691 2745.13 308.104 2745.13 346.167C2745.13 384.23 2712.6 409.644 2665.76 409.644H2561.78ZM3382.65 702.473H3535.07L3319.95 159.687H3167.53L2953.21 702.473H3104.83L3135.81 623.885H3350.93L3382.65 702.473ZM3178.64 517.595L3244.54 350.918L3308.84 517.595H3178.64ZM3907.43 711.23C3992.41 711.23 4068.56 674.712 4123.36 617.589L4025.73 531.103C3996.36 566.819 3954.27 589.829 3907.43 589.829C3824.86 589.829 3754.21 516.793 3754.21 431.108C3754.21 345.423 3824.86 272.388 3907.43 272.388C3952.67 272.388 3996.36 295.397 4024.93 331.114L4124.16 243.025C4069.36 186.703 3993.15 150.185 3908.23 150.185C3749.45 150.185 3616.1 278.741 3616.1 431.108C3616.1 583.475 3749.45 711.23 3907.43 711.23ZM4664 280.287V159.687H4236.9V281.088H4664V280.287ZM4236.85 365.228V702.473H4663.94V581.071H4371V485.026H4636.17V365.228H4236.85Z" fill="#100217"/>
<path d="M2009.46 1293.68H2041.35L1956.78 1094.95H1924.14L1838.83 1293.68H1871.47L1889.27 1253.62H1992.4L2009.46 1293.68ZM1900.38 1226.2L1940.46 1131.99L1980.54 1226.2H1900.38ZM2091.8 1293.68H2121.46V1143.15L2235.69 1293.68H2265.35V1094.95H2235.69V1245.49L2121.46 1094.95H2091.8V1293.68ZM2332.17 1293.68H2400.43C2464.96 1293.68 2511 1252.13 2511 1194.32C2511 1136.51 2465.02 1094.95 2400.43 1094.95H2332.17V1293.68ZM2361.83 1266.95V1121.57H2402.66C2448.64 1121.57 2480.53 1151.96 2480.53 1194.26C2480.53 1236.56 2448.64 1266.95 2402.66 1266.95H2361.83Z" fill="#100217"/>
<path d="M2796.83 1465.62H2931.79V1045.04H3096.13V923.64H2632.5V1045.04H2796.83V1465.62ZM3217.58 1465.62H3352.54V923.64H3217.58V1465.62ZM3503.36 1465.62H3638.32V1151.39L3794.69 1433.91L3951.07 1151.39V1465.62H4086.03V923.64H3951.07L3794.69 1206.17L3638.32 923.64H3503.36V1465.62Z" fill="#100217"/>
<path d="M4235.98 1128.49V1465.74H4663.08V1345.88H4370.14V1249.84H4636.11V1128.44L4235.98 1128.49ZM4663.08 1044.35V922.953H4235.98V1044.35H4663.08Z" fill="#100217"/>
<path d="M1340.84 895.409C1303.32 895.409 1272.84 925.811 1272.84 963.372V1142.85L704.415 1474.51L135.986 1142.85V498.017C480.883 544.206 740.995 841.766 740.995 1190.21C740.995 1201.95 740.701 1213.86 740.114 1225.54C738.235 1263.05 767.124 1294.91 804.643 1296.73C805.817 1296.73 806.933 1296.79 808.048 1296.79C844.041 1296.79 874.045 1268.56 875.865 1232.23C876.57 1218.32 876.922 1204.18 876.922 1190.21C876.922 986.848 802.881 790.94 668.481 638.58C565.082 521.376 431.856 436.275 284.479 391.611L704.415 146.579L901.465 261.553C933.877 280.452 975.506 269.535 994.413 237.138C1013.32 204.741 1002.4 163.13 969.987 144.231L738.646 9.24373C717.509 -3.08124 691.321 -3.08124 670.125 9.24373L33.703 380.519C12.8588 392.668 0 415.029 0 439.209V1181.76C0 1205.94 12.8588 1228.24 33.703 1240.45L670.125 1611.72C680.694 1617.89 692.554 1621 704.356 1621C716.158 1621 728.019 1617.89 738.588 1611.72L1375.01 1240.45C1395.85 1228.3 1408.71 1205.94 1408.71 1181.76V963.314C1408.71 925.811 1378.3 895.35 1340.72 895.35L1340.84 895.409Z" fill="#100217"/>
<path d="M1262.22 216.303C1095.88 216.303 960.536 351.584 960.536 517.854C960.536 684.123 1095.88 819.405 1262.22 819.405C1428.56 819.405 1563.9 684.123 1563.9 517.854C1563.9 351.584 1428.56 216.303 1262.22 216.303ZM1262.22 683.595C1170.8 683.595 1096.46 609.235 1096.46 517.912C1096.46 426.59 1170.86 352.23 1262.22 352.23C1353.58 352.23 1427.97 426.59 1427.97 517.912C1427.97 609.235 1353.58 683.595 1262.22 683.595Z" fill="#100217"/>
</svg>
